HIERARCHY
ROOT root
{
	OFFSET	0	13.1	24.9
	CHANNELS 6  Xposition Yposition Zposition Xrotation Yrotation Zrotation
	JOINT spine_1
	{
		OFFSET	0	9.99999	0
		CHANNELS 3  Xrotation Yrotation Zrotation
		JOINT spine_2
		{
			OFFSET	0	112	-10
			CHANNELS 3  Xrotation Yrotation Zrotation
			JOINT spine_3
			{
				OFFSET	0	206.5	19.3
				CHANNELS 3  Xrotation Yrotation Zrotation
				JOINT spine_4
				{
					OFFSET	0	110.4	14.6
					CHANNELS 3  Xrotation Yrotation Zrotation
					JOINT neck_1
					{
						OFFSET	0	71.8	-50.3
						CHANNELS 3  Xrotation Yrotation Zrotation
						JOINT neck_2
						{
							OFFSET	0	86.2	-25.8
							CHANNELS 3  Xrotation Yrotation Zrotation
							JOINT head_ee
							{
								OFFSET	0	179.8	-8.7
								CHANNELS 3  Xrotation Yrotation Zrotation
								End Site
								{
									OFFSET	1	0	0
								}
							}
						}
					}
					JOINT left_clavicle
					{
						OFFSET	-43.2	22.4	-70.8
						CHANNELS 3  Xrotation Yrotation Zrotation
						JOINT left_shoulder
						{
							OFFSET	-93.9	-5.79999	48.7
							CHANNELS 3  Xrotation Yrotation Zrotation
							JOINT left_elbow
							{
								OFFSET	-291.4	-30.8	15.2
								CHANNELS 3  Xrotation Yrotation Zrotation
								JOINT left_lowarm_twist
								{
									OFFSET	-110.7	-3.89999	13.6
									CHANNELS 3  Xrotation Yrotation Zrotation
									JOINT left_hand
									{
										OFFSET	-110.7	-3.89999	13.6
										CHANNELS 3  Xrotation Yrotation Zrotation
										JOINT left_ee
										{
											OFFSET	-80.8	-5.10001	12.1
											CHANNELS 3  Xrotation Yrotation Zrotation
											End Site
											{
												OFFSET	1	0	0
											}
										}
									}
								}
							}
						}
					}
					JOINT right_clavicle
					{
						OFFSET	43.2	22.4	-70.8
						CHANNELS 3  Xrotation Yrotation Zrotation
						JOINT right_shoulder
						{
							OFFSET	93.9	-5.79999	48.7
							CHANNELS 3  Xrotation Yrotation Zrotation
							JOINT right_elbow
							{
								OFFSET	291.4	-30.8	15.2
								CHANNELS 3  Xrotation Yrotation Zrotation
								JOINT right_lowarm_twist
								{
									OFFSET	110.7	-3.89999	13.6
									CHANNELS 3  Xrotation Yrotation Zrotation
									JOINT right_hand
									{
										OFFSET	110.7	-3.89999	13.6
										CHANNELS 3  Xrotation Yrotation Zrotation
										JOINT right_ee
										{
											OFFSET	80.8	-5.10001	12.1
											CHANNELS 3  Xrotation Yrotation Zrotation
											End Site
											{
												OFFSET	1	0	0
											}
										}
									}
								}
							}
						}
					}
				}
			}
		}
	}
	JOINT left_hip
	{
		OFFSET	-82.8	-127.5	0.300001
		CHANNELS 3  Xrotation Yrotation Zrotation
		JOINT left_knee
		{
			OFFSET	-28.2	-396.7	2.2
			CHANNELS 3  Xrotation Yrotation Zrotation
			JOINT left_ankle
			{
				OFFSET	-11.7	-411.3	35.4
				CHANNELS 3  Xrotation Yrotation Zrotation
				JOINT left_toes
				{
					OFFSET	0	-60	-88.6
					CHANNELS 3  Xrotation Yrotation Zrotation
					JOINT left_foot_ee
					{
						OFFSET	-22.5	-16.5	-42.2
						CHANNELS 3  Xrotation Yrotation Zrotation
						End Site
						{
							OFFSET	1	0	0
						}
					}
				}
			}
		}
	}
	JOINT right_hip
	{
		OFFSET	82.8	-127.5	0.300001
		CHANNELS 3  Xrotation Yrotation Zrotation
		JOINT right_knee
		{
			OFFSET	28.2	-396.7	2.2
			CHANNELS 3  Xrotation Yrotation Zrotation
			JOINT right_ankle
			{
				OFFSET	11.7	-411.3	35.4
				CHANNELS 3  Xrotation Yrotation Zrotation
				JOINT right_toes
				{
					OFFSET	0	-60	-88.6
					CHANNELS 3  Xrotation Yrotation Zrotation
					JOINT right_foot_ee
					{
						OFFSET	22.5	-16.5	-42.2
						CHANNELS 3  Xrotation Yrotation Zrotation
						End Site
						{
							OFFSET	1	0	0
						}
					}
				}
			}
		}
	}
}
MOTION
Frames: 14
Frame Time: 0.02
3574.42 741.953 -1474.73 -31.4643445418 82.6607288788 31.1350956234 1.95575 0.343193 1.19193 1.9565 0.266658 1.21135 1.96218 0.0485985 1.2394 1.96012 0.243713 1.21617 0.744643 2.2692 -8.84324 1.13975 11.3364 -9.43458 -0.0 0.0 -0.0 0.204442 9.45439 1.47521 -5.26565 -27.8643 67.9922 1.4292 -35.2957 0.454703 25.9222 0.174286 -3.27864 3.97938 15.5589 32.9658 -0.0 0.0 -0.0 2.6043 0.000816248 -5.01767 -20.5707 13.186 -71.0022 1.26944 32.1621 -0.365965 -4.70271 0.189245 -0.570399 3.79105 1.24331 -25.7579 0.0 0.0 0.0 -2.6978 13.4316 2.0551 -1.71524 0.0668149 0.25474 19.2928 2.34373 -2.65207 -8.50882 0.0 0.0 -0.0 0.0 -0.0 1.9947 4.1967 -2.66306 -9.85412 -0.278616 -1.48477 24.7874 -10.1327 3.31203 -11.0608 0.0 0.0 0.0 0.0 0.0 
3574.42 741.953 -1474.73 -30.6989303106 82.4953180251 30.363215329 1.95575 0.343193 1.19193 1.9565 0.266658 1.21135 1.96218 0.0485985 1.2394 1.96012 0.243713 1.21617 0.744643 2.2692 -8.84324 1.13975 11.3364 -9.43458 -0.0 0.0 -0.0 0.204442 9.45439 1.47521 -5.26565 -27.8643 67.9922 1.4292 -35.2957 0.454703 25.9222 0.174286 -3.27864 3.97938 15.5589 32.9658 -0.0 0.0 -0.0 2.6043 0.000816248 -5.01767 -20.5707 13.186 -71.0022 1.26944 32.1621 -0.365965 -4.70271 0.189245 -0.570399 3.79105 1.24331 -25.7579 0.0 0.0 0.0 -2.6978 13.4316 2.0551 -1.71524 0.0668149 0.25474 19.2928 2.34373 -2.65207 -8.50882 0.0 0.0 -0.0 0.0 -0.0 1.9947 4.1967 -2.66306 -9.85412 -0.278616 -1.48477 24.7874 -10.1327 3.31203 -11.0608 0.0 0.0 0.0 0.0 0.0 
3574.42 741.953 -1474.73 -29.2800522806 82.1641847982 28.9315347759 1.95575 0.343193 1.19193 1.9565 0.266658 1.21135 1.96218 0.0485985 1.2394 1.96012 0.243713 1.21617 0.744643 2.2692 -8.84324 1.13975 11.3364 -9.43458 -0.0 0.0 -0.0 0.204442 9.45439 1.47521 -5.26565 -27.8643 67.9922 1.4292 -35.2957 0.454703 25.9222 0.174286 -3.27864 3.97938 15.5589 32.9658 -0.0 0.0 -0.0 2.6043 0.000816248 -5.01767 -20.5707 13.186 -71.0022 1.26944 32.1621 -0.365965 -4.70271 0.189245 -0.570399 3.79105 1.24331 -25.7579 0.0 0.0 0.0 -2.6978 13.4316 2.0551 -1.71524 0.0668149 0.25474 19.2928 2.34373 -2.65207 -8.50882 0.0 0.0 -0.0 0.0 -0.0 1.9947 4.1967 -2.66306 -9.85412 -0.278616 -1.48477 24.7874 -10.1327 3.31203 -11.0608 0.0 0.0 0.0 0.0 0.0 
3574.42 741.953 -1474.73 -27.0080190048 81.5566389859 26.6364186677 1.95575 0.343193 1.19193 1.9565 0.266658 1.21135 1.96218 0.0485985 1.2394 1.96012 0.243713 1.21617 0.744643 2.2692 -8.84324 1.13975 11.3364 -9.43458 -0.0 0.0 -0.0 0.204442 9.45439 1.47521 -5.26565 -27.8643 67.9922 1.4292 -35.2957 0.454703 25.9222 0.174286 -3.27864 3.97938 15.5589 32.9658 -0.0 0.0 -0.0 2.6043 0.000816248 -5.01767 -20.5707 13.186 -71.0022 1.26944 32.1621 -0.365965 -4.70271 0.189245 -0.570399 3.79105 1.24331 -25.7579 0.0 0.0 0.0 -2.6978 13.4316 2.0551 -1.71524 0.0668149 0.25474 19.2928 2.34373 -2.65207 -8.50882 0.0 0.0 -0.0 0.0 -0.0 1.9947 4.1967 -2.66306 -9.85412 -0.278616 -1.48477 24.7874 -10.1327 3.31203 -11.0608 0.0 0.0 0.0 0.0 0.0 
3574.42 741.953 -1474.73 -24.6403708081 80.7971307715 24.240478413 1.95575 0.343193 1.19193 1.9565 0.266658 1.21135 1.96218 0.0485985 1.2394 1.96012 0.243713 1.21617 0.744643 2.2692 -8.84324 1.13975 11.3364 -9.43458 -0.0 0.0 -0.0 0.204442 9.45439 1.47521 -5.26565 -27.8643 67.9922 1.4292 -35.2957 0.454703 25.9222 0.174286 -3.27864 3.97938 15.5589 32.9658 -0.0 0.0 -0.0 2.6043 0.000816248 -5.01767 -20.5707 13.186 -71.0022 1.26944 32.1621 -0.365965 -4.70271 0.189245 -0.570399 3.79105 1.24331 -25.7579 0.0 0.0 0.0 -2.6978 13.4316 2.0551 -1.71524 0.0668149 0.25474 19.2928 2.34373 -2.65207 -8.50882 0.0 0.0 -0.0 0.0 -0.0 1.9947 4.1967 -2.66306 -9.85412 -0.278616 -1.48477 24.7874 -10.1327 3.31203 -11.0608 0.0 0.0 0.0 0.0 0.0 
3574.42 741.953 -1474.73 -22.7109594961 80.0548524165 22.2838601739 1.95575 0.343193 1.19193 1.9565 0.266658 1.21135 1.96218 0.0485985 1.2394 1.96012 0.243713 1.21617 0.744643 2.2692 -8.84324 1.13975 11.3364 -9.43458 -0.0 0.0 -0.0 0.204442 9.45439 1.47521 -5.26565 -27.8643 67.9922 1.4292 -35.2957 0.454703 25.9222 0.174286 -3.27864 3.97938 15.5589 32.9658 -0.0 0.0 -0.0 2.6043 0.000816248 -5.01767 -20.5707 13.186 -71.0022 1.26944 32.1621 -0.365965 -4.70271 0.189245 -0.570399 3.79105 1.24331 -25.7579 0.0 0.0 0.0 -2.6978 13.4316 2.0551 -1.71524 0.0668149 0.25474 19.2928 2.34373 -2.65207 -8.50882 0.0 0.0 -0.0 0.0 -0.0 1.9947 4.1967 -2.66306 -9.85412 -0.278616 -1.48477 24.7874 -10.1327 3.31203 -11.0608 0.0 0.0 0.0 0.0 0.0 
3574.42 741.953 -1474.73 -20.5062196332 79.0272627337 20.0419697393 1.95575 0.343193 1.19193 1.9565 0.266658 1.21135 1.96218 0.0485985 1.2394 1.96012 0.243713 1.21617 0.744643 2.2692 -8.84324 1.13975 11.3364 -9.43458 -0.0 0.0 -0.0 0.204442 9.45439 1.47521 -5.26565 -27.8643 67.9922 1.4292 -35.2957 0.454703 25.9222 0.174286 -3.27864 3.97938 15.5589 32.9658 -0.0 0.0 -0.0 2.6043 0.000816248 -5.01767 -20.5707 13.186 -71.0022 1.26944 32.1621 -0.365965 -4.70271 0.189245 -0.570399 3.79105 1.24331 -25.7579 0.0 0.0 0.0 -2.6978 13.4316 2.0551 -1.71524 0.0668149 0.25474 19.2928 2.34373 -2.65207 -8.50882 0.0 0.0 -0.0 0.0 -0.0 1.9947 4.1967 -2.66306 -9.85412 -0.278616 -1.48477 24.7874 -10.1327 3.31203 -11.0608 0.0 0.0 0.0 0.0 0.0 
3574.42 741.953 -1474.73 -18.3264881915 77.7568660887 17.8168742968 1.95575 0.343193 1.19193 1.9565 0.266658 1.21135 1.96218 0.0485985 1.2394 1.96012 0.243713 1.21617 0.744643 2.2692 -8.84324 1.13975 11.3364 -9.43458 -0.0 0.0 -0.0 0.204442 9.45439 1.47521 -5.26565 -27.8643 67.9922 1.4292 -35.2957 0.454703 25.9222 0.174286 -3.27864 3.97938 15.5589 32.9658 -0.0 0.0 -0.0 2.6043 0.000816248 -5.01767 -20.5707 13.186 -71.0022 1.26944 32.1621 -0.365965 -4.70271 0.189245 -0.570399 3.79105 1.24331 -25.7579 0.0 0.0 0.0 -2.6978 13.4316 2.0551 -1.71524 0.0668149 0.25474 19.2928 2.34373 -2.65207 -8.50882 0.0 0.0 -0.0 0.0 -0.0 1.9947 4.1967 -2.66306 -9.85412 -0.278616 -1.48477 24.7874 -10.1327 3.31203 -11.0608 0.0 0.0 0.0 0.0 0.0 
3574.42 741.953 -1474.73 -16.0621670647 76.05473752 15.4923794426 1.95575 0.343193 1.19193 1.9565 0.266658 1.21135 1.96218 0.0485985 1.2394 1.96012 0.243713 1.21617 0.744643 2.2692 -8.84324 1.13975 11.3364 -9.43458 -0.0 0.0 -0.0 0.204442 9.45439 1.47521 -5.26565 -27.8643 67.9922 1.4292 -35.2957 0.454703 25.9222 0.174286 -3.27864 3.97938 15.5589 32.9658 -0.0 0.0 -0.0 2.6043 0.000816248 -5.01767 -20.5707 13.186 -71.0022 1.26944 32.1621 -0.365965 -4.70271 0.189245 -0.570399 3.79105 1.24331 -25.7579 0.0 0.0 0.0 -2.6978 13.4316 2.0551 -1.71524 0.0668149 0.25474 19.2928 2.34373 -2.65207 -8.50882 0.0 0.0 -0.0 0.0 -0.0 1.9947 4.1967 -2.66306 -9.85412 -0.278616 -1.48477 24.7874 -10.1327 3.31203 -11.0608 0.0 0.0 0.0 0.0 0.0 
3574.42 741.953 -1474.73 -13.6643631279 73.6050844705 13.0085971423 1.95575 0.343193 1.19193 1.9565 0.266658 1.21135 1.96218 0.0485985 1.2394 1.96012 0.243713 1.21617 0.744643 2.2692 -8.84324 1.13975 11.3364 -9.43458 -0.0 0.0 -0.0 0.204442 9.45439 1.47521 -5.26565 -27.8643 67.9922 1.4292 -35.2957 0.454703 25.9222 0.174286 -3.27864 3.97938 15.5589 32.9658 -0.0 0.0 -0.0 2.6043 0.000816248 -5.01767 -20.5707 13.186 -71.0022 1.26944 32.1621 -0.365965 -4.70271 0.189245 -0.570399 3.79105 1.24331 -25.7579 0.0 0.0 0.0 -2.6978 13.4316 2.0551 -1.71524 0.0668149 0.25474 19.2928 2.34373 -2.65207 -8.50882 0.0 0.0 -0.0 0.0 -0.0 1.9947 4.1967 -2.66306 -9.85412 -0.278616 -1.48477 24.7874 -10.1327 3.31203 -11.0608 0.0 0.0 0.0 0.0 0.0 
3568.50419259 736.027 -1484.00551738 -10.5939791276 71.4633507552 10.2124298194 1.93719 0.303507 0.962416 1.93767 0.241654 0.979776 1.94184 0.0645115 1.00707 1.9405 0.222742 0.984247 0.743614 3.80367 -9.97737 1.31836 14.9818 -10.5643 -0.0 0.0 -0.0 -1.9812 11.7721 -1.94637 -3.61372 -29.6992 71.1675 1.65909 -39.4123 0.594277 26.184 0.16845 -3.31157 3.62944 11.4386 29.1699 -0.0 0.0 -0.0 2.2982 0.280565 -4.40524 -19.209 14.4659 -70.8341 1.15301 29.7326 -0.306077 -1.98286 0.0740712 -0.242359 4.42683 3.09084 -29.8 0.0 0.0 0.0 -2.64818 11.8284 1.6191 -5.40468 0.184493 0.808634 23.1611 3.65631 -3.11953 -2.72618 0.0 0.0 -0.0 0.0 -0.0 1.48083 4.77386 -3.45107 -11.8439 -0.30366 -1.78903 28.659 -13.6714 3.7742 -9.74271 0.0 0.0 0.0 0.0 0.0 
3551.18809404 723.969 -1498.04034631 -0.604596012454 73.562946594 -0.0669546815565 1.4586 0.254237 0.940851 1.45907 0.193856 0.95512 1.4624 0.0136673 0.974497 1.46111 0.167392 0.960111 -3.784 5.70357 -7.77604 -3.46085 16.3735 -7.1937 -0.0 0.0 -0.0 -4.49299 14.8802 -5.5076 -4.99226 -33.5029 73.1322 1.74084 -40.7695 0.646927 27.3336 0.141041 -3.45586 2.93957 5.0406 21.99 -0.0 0.0 -0.0 2.86789 3.03346 -5.30906 -14.3201 15.759 -69.888 0.907075 24.1959 -0.19443 4.5625 -0.138261 0.566225 5.56047 5.51047 -37.8377 0.0 0.0 0.0 -1.83311 8.52381 0.313567 -17.208 0.318428 2.61162 27.1608 6.22865 -3.57709 8.37566 -0.0 -0.0 -0.0 0.0 -0.0 -7.42297 13.2235 -2.91873 -4.96094 -0.172232 -0.741639 38.578 -8.60249 4.74115 -11.3872 0.0 0.0 0.0 0.0 0.0 
3540.83151536 722.68 -1507.17016338 0.379683776781 76.3296741614 0.384076797811 1.23582 0.0760036 0.627675 1.23603 0.0359098 0.631239 1.23647 -0.0840639 0.626647 1.23592 0.0159563 0.632059 -2.14971 5.5593 -8.30451 -1.73427 16.5965 -8.05411 -0.0 0.0 -0.0 -5.37995 16.1862 -6.62783 -7.966 -34.3199 72.4108 1.71358 -40.3231 0.629212 27.0062 0.14914 -3.41483 2.85236 4.46086 21.1559 -0.0 0.0 -0.0 3.59663 3.54861 -6.72065 -13.5532 15.9769 -68.7094 0.827619 22.2924 -0.163068 5.57835 -0.162875 0.693655 5.68923 5.90027 -38.7351 0.0 0.0 0.0 -0.0614687 8.64367 -2.1297 -19.0249 0.305966 2.89011 29.5427 8.45736 -3.84197 9.40989 -0.0 -0.0 -0.0 0.0 -0.0 -9.22573 15.8887 -4.44804 -2.32479 -0.0887155 -0.345723 38.8339 -8.07167 4.76174 -10.7983 0.0 0.0 0.0 0.0 0.0 
3542.2600534 722.68 -1508.58688017 0.322813528753 73.8609363464 0.442913405532 1.23582 0.0760036 0.627675 1.23603 0.0359098 0.631239 1.23647 -0.0840639 0.626647 1.23592 0.0159563 0.632059 -2.14971 5.5593 -8.30451 -1.73427 16.5965 -8.05411 -0.0 0.0 -0.0 -5.37995 16.1862 -6.62783 -7.966 -34.3199 72.4108 1.71358 -40.3231 0.629212 27.0062 0.14914 -3.41483 2.85236 4.46086 21.1559 -0.0 0.0 -0.0 3.59663 3.54861 -6.72065 -13.5532 15.9769 -68.7094 0.827619 22.2924 -0.163068 5.57835 -0.162875 0.693655 5.68923 5.90027 -38.7351 0.0 0.0 0.0 -0.0614687 8.64367 -2.1297 -19.0249 0.305966 2.89011 29.5427 8.45736 -3.84197 9.40989 -0.0 -0.0 -0.0 0.0 -0.0 -9.22573 15.8887 -4.44804 -2.32479 -0.0887155 -0.345723 38.8339 -8.07167 4.76174 -10.7983 0.0 0.0 0.0 0.0 0.0 
